<mxfile host="Electron" agent="Mozilla/5.0 (Windows NT 10.0; Win64; x64) AppleWebKit/537.36 (KHTML, like Gecko) draw.io/28.2.5 Chrome/138.0.7204.251 Electron/37.6.1 Safari/537.36" version="28.2.5">
  <diagram name="Page-1" id="Wx-5GgwkxVG2q9RuoGBQ">
    <mxGraphModel dx="1766" dy="979" grid="1" gridSize="10" guides="1" tooltips="1" connect="1" arrows="1" fold="1" page="1" pageScale="1" pageWidth="827" pageHeight="1169" math="0" shadow="0">
      <root>
        <mxCell id="0" />
        <mxCell id="1" parent="0" />
        <mxCell id="VL-BGcckwlko-flNboxZ-1" value="site web Engseignement" style="shape=umlFrame;whiteSpace=wrap;html=1;pointerEvents=0;width=160;height=30;" vertex="1" parent="1">
          <mxGeometry x="50" y="150" width="630" height="600" as="geometry" />
        </mxCell>
        <mxCell id="VL-BGcckwlko-flNboxZ-40" style="rounded=0;orthogonalLoop=1;jettySize=auto;html=1;exitX=0.5;exitY=0.5;exitDx=0;exitDy=0;exitPerimeter=0;entryX=0;entryY=0;entryDx=0;entryDy=0;" edge="1" parent="1" source="VL-BGcckwlko-flNboxZ-2" target="VL-BGcckwlko-flNboxZ-26">
          <mxGeometry relative="1" as="geometry" />
        </mxCell>
        <mxCell id="VL-BGcckwlko-flNboxZ-2" value="Membre" style="shape=umlActor;verticalLabelPosition=bottom;verticalAlign=top;html=1;" vertex="1" parent="1">
          <mxGeometry x="-20" y="200" width="30" height="60" as="geometry" />
        </mxCell>
        <mxCell id="VL-BGcckwlko-flNboxZ-17" style="rounded=0;orthogonalLoop=1;jettySize=auto;html=1;exitX=0.5;exitY=0.5;exitDx=0;exitDy=0;exitPerimeter=0;entryX=1;entryY=0.5;entryDx=0;entryDy=0;" edge="1" parent="1" source="VL-BGcckwlko-flNboxZ-3" target="VL-BGcckwlko-flNboxZ-4">
          <mxGeometry relative="1" as="geometry" />
        </mxCell>
        <mxCell id="VL-BGcckwlko-flNboxZ-18" style="rounded=0;orthogonalLoop=1;jettySize=auto;html=1;exitX=0.5;exitY=0.5;exitDx=0;exitDy=0;exitPerimeter=0;entryX=1;entryY=0.5;entryDx=0;entryDy=0;edgeStyle=orthogonalEdgeStyle;curved=1;" edge="1" parent="1" source="VL-BGcckwlko-flNboxZ-3" target="VL-BGcckwlko-flNboxZ-5">
          <mxGeometry relative="1" as="geometry" />
        </mxCell>
        <mxCell id="VL-BGcckwlko-flNboxZ-19" style="rounded=0;orthogonalLoop=1;jettySize=auto;html=1;exitX=0.5;exitY=0.5;exitDx=0;exitDy=0;exitPerimeter=0;entryX=1;entryY=0.5;entryDx=0;entryDy=0;edgeStyle=orthogonalEdgeStyle;curved=1;" edge="1" parent="1" source="VL-BGcckwlko-flNboxZ-3" target="VL-BGcckwlko-flNboxZ-12">
          <mxGeometry relative="1" as="geometry" />
        </mxCell>
        <mxCell id="VL-BGcckwlko-flNboxZ-3" value="Professeur/Admin" style="shape=umlActor;verticalLabelPosition=bottom;verticalAlign=top;html=1;" vertex="1" parent="1">
          <mxGeometry x="730" y="200" width="30" height="60" as="geometry" />
        </mxCell>
        <mxCell id="VL-BGcckwlko-flNboxZ-4" value="Se connecter" style="ellipse;whiteSpace=wrap;html=1;" vertex="1" parent="1">
          <mxGeometry x="480" y="210" width="140" height="70" as="geometry" />
        </mxCell>
        <mxCell id="VL-BGcckwlko-flNboxZ-25" style="edgeStyle=orthogonalEdgeStyle;rounded=0;orthogonalLoop=1;jettySize=auto;html=1;exitX=0;exitY=0.5;exitDx=0;exitDy=0;entryX=0;entryY=0.5;entryDx=0;entryDy=0;curved=1;dashed=1;dashPattern=8 8;" edge="1" parent="1" source="VL-BGcckwlko-flNboxZ-5" target="VL-BGcckwlko-flNboxZ-4">
          <mxGeometry relative="1" as="geometry">
            <Array as="points">
              <mxPoint x="370" y="395" />
              <mxPoint x="370" y="280" />
              <mxPoint x="480" y="280" />
            </Array>
          </mxGeometry>
        </mxCell>
        <mxCell id="VL-BGcckwlko-flNboxZ-5" value="Gérer les comptes" style="ellipse;whiteSpace=wrap;html=1;" vertex="1" parent="1">
          <mxGeometry x="480" y="360" width="140" height="70" as="geometry" />
        </mxCell>
        <mxCell id="VL-BGcckwlko-flNboxZ-6" value="Créer compte" style="ellipse;whiteSpace=wrap;html=1;" vertex="1" parent="1">
          <mxGeometry x="359" y="430" width="110" height="50" as="geometry" />
        </mxCell>
        <mxCell id="VL-BGcckwlko-flNboxZ-9" style="rounded=0;orthogonalLoop=1;jettySize=auto;html=1;exitX=1;exitY=0.5;exitDx=0;exitDy=0;entryX=0.5;entryY=1;entryDx=0;entryDy=0;endArrow=block;endFill=0;endSize=10;" edge="1" parent="1" source="VL-BGcckwlko-flNboxZ-7" target="VL-BGcckwlko-flNboxZ-5">
          <mxGeometry relative="1" as="geometry" />
        </mxCell>
        <mxCell id="VL-BGcckwlko-flNboxZ-7" value="bloquer compte" style="ellipse;whiteSpace=wrap;html=1;" vertex="1" parent="1">
          <mxGeometry x="359" y="490" width="110" height="50" as="geometry" />
        </mxCell>
        <mxCell id="VL-BGcckwlko-flNboxZ-11" style="rounded=0;orthogonalLoop=1;jettySize=auto;html=1;exitX=1;exitY=0.5;exitDx=0;exitDy=0;entryX=0;entryY=1;entryDx=0;entryDy=0;strokeColor=default;align=center;verticalAlign=middle;fontFamily=Helvetica;fontSize=11;fontColor=default;labelBackgroundColor=default;endArrow=block;endFill=0;endSize=10;" edge="1" parent="1" source="VL-BGcckwlko-flNboxZ-6" target="VL-BGcckwlko-flNboxZ-5">
          <mxGeometry relative="1" as="geometry" />
        </mxCell>
        <mxCell id="VL-BGcckwlko-flNboxZ-22" style="edgeStyle=orthogonalEdgeStyle;rounded=0;orthogonalLoop=1;jettySize=auto;html=1;exitX=0;exitY=0.5;exitDx=0;exitDy=0;entryX=0;entryY=0.5;entryDx=0;entryDy=0;curved=1;dashed=1;dashPattern=8 8;" edge="1" parent="1" source="VL-BGcckwlko-flNboxZ-12" target="VL-BGcckwlko-flNboxZ-4">
          <mxGeometry relative="1" as="geometry">
            <Array as="points">
              <mxPoint x="320" y="575" />
              <mxPoint x="320" y="245" />
            </Array>
          </mxGeometry>
        </mxCell>
        <mxCell id="VL-BGcckwlko-flNboxZ-12" value="Gérer les ressources" style="ellipse;whiteSpace=wrap;html=1;" vertex="1" parent="1">
          <mxGeometry x="480" y="540" width="140" height="70" as="geometry" />
        </mxCell>
        <mxCell id="VL-BGcckwlko-flNboxZ-16" style="rounded=0;orthogonalLoop=1;jettySize=auto;html=1;exitX=1;exitY=0.5;exitDx=0;exitDy=0;entryX=0;entryY=1;entryDx=0;entryDy=0;strokeColor=default;align=center;verticalAlign=middle;fontFamily=Helvetica;fontSize=11;fontColor=default;labelBackgroundColor=default;endArrow=block;endFill=0;endSize=10;" edge="1" parent="1" source="VL-BGcckwlko-flNboxZ-13" target="VL-BGcckwlko-flNboxZ-12">
          <mxGeometry relative="1" as="geometry" />
        </mxCell>
        <mxCell id="VL-BGcckwlko-flNboxZ-13" value="Ajouter" style="ellipse;whiteSpace=wrap;html=1;" vertex="1" parent="1">
          <mxGeometry x="359" y="610" width="110" height="50" as="geometry" />
        </mxCell>
        <mxCell id="VL-BGcckwlko-flNboxZ-15" style="rounded=0;orthogonalLoop=1;jettySize=auto;html=1;exitX=1;exitY=0.5;exitDx=0;exitDy=0;entryX=0.5;entryY=1;entryDx=0;entryDy=0;strokeColor=default;align=center;verticalAlign=middle;fontFamily=Helvetica;fontSize=11;fontColor=default;labelBackgroundColor=default;endArrow=block;endFill=0;endSize=10;" edge="1" parent="1" source="VL-BGcckwlko-flNboxZ-14" target="VL-BGcckwlko-flNboxZ-12">
          <mxGeometry relative="1" as="geometry" />
        </mxCell>
        <mxCell id="VL-BGcckwlko-flNboxZ-14" value="Supprimer" style="ellipse;whiteSpace=wrap;html=1;" vertex="1" parent="1">
          <mxGeometry x="359" y="670" width="110" height="50" as="geometry" />
        </mxCell>
        <mxCell id="VL-BGcckwlko-flNboxZ-21" value="&lt;font style=&quot;font-size: 20px;&quot;&gt;&amp;lt;&amp;lt; include &amp;gt;&amp;gt;&lt;/font&gt;" style="text;html=1;align=center;verticalAlign=middle;resizable=0;points=[];autosize=1;strokeColor=none;fillColor=none;" vertex="1" parent="1">
          <mxGeometry x="280" y="245" width="140" height="40" as="geometry" />
        </mxCell>
        <mxCell id="VL-BGcckwlko-flNboxZ-27" style="edgeStyle=orthogonalEdgeStyle;rounded=0;orthogonalLoop=1;jettySize=auto;html=1;exitX=0.5;exitY=0;exitDx=0;exitDy=0;entryX=0;entryY=0;entryDx=0;entryDy=0;curved=1;dashed=1;dashPattern=8 8;" edge="1" parent="1" source="VL-BGcckwlko-flNboxZ-26" target="VL-BGcckwlko-flNboxZ-4">
          <mxGeometry relative="1" as="geometry">
            <Array as="points">
              <mxPoint x="160" y="220" />
            </Array>
          </mxGeometry>
        </mxCell>
        <mxCell id="VL-BGcckwlko-flNboxZ-26" value="Accéder aux ressources" style="ellipse;whiteSpace=wrap;html=1;" vertex="1" parent="1">
          <mxGeometry x="70" y="230" width="140" height="70" as="geometry" />
        </mxCell>
        <mxCell id="VL-BGcckwlko-flNboxZ-28" value="Rechercher" style="ellipse;whiteSpace=wrap;html=1;" vertex="1" parent="1">
          <mxGeometry x="140" y="450" width="110" height="50" as="geometry" />
        </mxCell>
        <mxCell id="VL-BGcckwlko-flNboxZ-29" value="Lire" style="ellipse;whiteSpace=wrap;html=1;" vertex="1" parent="1">
          <mxGeometry x="140" y="310" width="110" height="50" as="geometry" />
        </mxCell>
        <mxCell id="VL-BGcckwlko-flNboxZ-32" style="edgeStyle=orthogonalEdgeStyle;rounded=0;orthogonalLoop=1;jettySize=auto;html=1;exitX=0;exitY=0.5;exitDx=0;exitDy=0;entryX=0;entryY=1;entryDx=0;entryDy=0;strokeColor=default;align=center;verticalAlign=middle;fontFamily=Helvetica;fontSize=11;fontColor=default;labelBackgroundColor=default;endArrow=block;endFill=0;endSize=10;curved=1;" edge="1" parent="1" source="VL-BGcckwlko-flNboxZ-30" target="VL-BGcckwlko-flNboxZ-26">
          <mxGeometry relative="1" as="geometry" />
        </mxCell>
        <mxCell id="VL-BGcckwlko-flNboxZ-30" value="télécharger" style="ellipse;whiteSpace=wrap;html=1;" vertex="1" parent="1">
          <mxGeometry x="140" y="380" width="110" height="50" as="geometry" />
        </mxCell>
        <mxCell id="VL-BGcckwlko-flNboxZ-31" style="edgeStyle=orthogonalEdgeStyle;rounded=0;orthogonalLoop=1;jettySize=auto;html=1;exitX=0;exitY=0.5;exitDx=0;exitDy=0;entryX=0.321;entryY=1.029;entryDx=0;entryDy=0;entryPerimeter=0;strokeColor=default;align=center;verticalAlign=middle;fontFamily=Helvetica;fontSize=11;fontColor=default;labelBackgroundColor=default;endArrow=block;endFill=0;endSize=10;curved=1;" edge="1" parent="1" source="VL-BGcckwlko-flNboxZ-29" target="VL-BGcckwlko-flNboxZ-26">
          <mxGeometry relative="1" as="geometry" />
        </mxCell>
        <mxCell id="VL-BGcckwlko-flNboxZ-33" style="edgeStyle=orthogonalEdgeStyle;rounded=0;orthogonalLoop=1;jettySize=auto;html=1;exitX=0;exitY=0.5;exitDx=0;exitDy=0;entryX=0.043;entryY=0.686;entryDx=0;entryDy=0;entryPerimeter=0;strokeColor=default;align=center;verticalAlign=middle;fontFamily=Helvetica;fontSize=11;fontColor=default;labelBackgroundColor=default;endArrow=block;endFill=0;endSize=10;curved=1;" edge="1" parent="1" source="VL-BGcckwlko-flNboxZ-28" target="VL-BGcckwlko-flNboxZ-26">
          <mxGeometry relative="1" as="geometry" />
        </mxCell>
        <mxCell id="VL-BGcckwlko-flNboxZ-39" style="edgeStyle=orthogonalEdgeStyle;rounded=0;orthogonalLoop=1;jettySize=auto;html=1;exitX=0;exitY=0.5;exitDx=0;exitDy=0;strokeColor=default;align=center;verticalAlign=middle;fontFamily=Helvetica;fontSize=11;fontColor=default;labelBackgroundColor=default;endArrow=block;endFill=0;endSize=10;curved=1;entryX=0.388;entryY=0.993;entryDx=0;entryDy=0;entryPerimeter=0;" edge="1" parent="1" source="VL-BGcckwlko-flNboxZ-36" target="VL-BGcckwlko-flNboxZ-28">
          <mxGeometry relative="1" as="geometry">
            <mxPoint x="195" y="500" as="targetPoint" />
            <Array as="points">
              <mxPoint x="183" y="560" />
            </Array>
          </mxGeometry>
        </mxCell>
        <mxCell id="VL-BGcckwlko-flNboxZ-36" value="via barre de recherce" style="ellipse;whiteSpace=wrap;html=1;" vertex="1" parent="1">
          <mxGeometry x="200" y="535" width="110" height="50" as="geometry" />
        </mxCell>
        <mxCell id="VL-BGcckwlko-flNboxZ-37" value="via ChatBot" style="ellipse;whiteSpace=wrap;html=1;" vertex="1" parent="1">
          <mxGeometry x="200" y="590" width="110" height="50" as="geometry" />
        </mxCell>
        <mxCell id="VL-BGcckwlko-flNboxZ-38" style="edgeStyle=orthogonalEdgeStyle;rounded=0;orthogonalLoop=1;jettySize=auto;html=1;exitX=0;exitY=0.5;exitDx=0;exitDy=0;strokeColor=default;align=center;verticalAlign=middle;fontFamily=Helvetica;fontSize=11;fontColor=default;labelBackgroundColor=default;endArrow=block;endFill=0;endSize=10;curved=1;entryX=0.243;entryY=0.935;entryDx=0;entryDy=0;entryPerimeter=0;" edge="1" parent="1" source="VL-BGcckwlko-flNboxZ-37" target="VL-BGcckwlko-flNboxZ-28">
          <mxGeometry relative="1" as="geometry">
            <mxPoint x="167" y="501" as="targetPoint" />
          </mxGeometry>
        </mxCell>
      </root>
    </mxGraphModel>
  </diagram>
</mxfile>
